# xmcd CD database file generated by OrangeCD 5.2
#
# Track frame offsets:
#	150
#	13155
#	24753
#	36415
#	50523
#	60376
#	73220
#	83878
#	97890
#	114852
#
# Disc length: 1698 seconds
#
# Revision: 0
# Processed by: cddbd v1.5.1PL0 Copyright (c) Steve Scherf et al.
# Submitted via: OrangeCD 5.2
#
DISCID=7706a00a
DTITLE=Various Artist - HMV Presents Blues Masters
DYEAR=1998
DGENRE=Blues Compilation
TTITLE0=Muddy Waters - Hoochie Coochie Man
TTITLE1=Howlin' Wolf - Sitting On Top Of The World
TTITLE2=John Lee Hoker - Walkin' The Boogie
TTITLE3=Little Walter - Blues With A Feeling
TTITLE4=Willie Dixon - 29 Ways
TTITLE5=Sonny Boy Williamson - Keep It To Yourself
TTITLE6=Buddy Guy - First Time I Met The Blues
TTITLE7=Koko Taylor - What Kind Of Man Is That
TTITLE8=Hound Dog Taylor - Sitting Here Alone
TTITLE9=Little Joe Blue - Dirty Work Goin' On
EXTD=
EXTT0=
EXTT1=
EXTT2=
EXTT3=
EXTT4=
EXTT5=
EXTT6=
EXTT7=
EXTT8=
EXTT9=
PLAYORDER=
